<?xml version="1.0" encoding="utf-8"?>
<!-- Generator: Adobe Illustrator 23.0.1, SVG Export Plug-In . SVG Version: 6.00 Build 0)  -->
<svg version="1.1" id="Layer_1" xmlns="http://www.w3.org/2000/svg" xmlns:xlink="http://www.w3.org/1999/xlink" x="0px" y="0px"
	 viewBox="0 0 512 512" style="enable-background:new 0 0 512 512;" xml:space="preserve">
<style type="text/css">
	.st0{
		fill-rule:evenodd;
		clip-rule:evenodd;
		background-color: #151515;
		}
</style>
<path class="st0" d="M161.4,375.8c0.6,1.1,0.9,2.6,0.8,3.8s-0.6,1.9-1.3,1.9c-0.7,0-1.5-0.6-2-1.5c-0.6-0.8-0.9-1.8-1-2.8
	c-0.2-1-0.2-1.9-0.4-2.8c-0.2-0.9-0.4-1.8-0.6-2.4c-0.1-0.6-0.2-0.9,0.2-0.6c0.4,0.3,1.2,1.2,2,2C160,374.1,160.8,374.7,161.4,375.8
	 M349.8,379.6c-0.1-1.1,0.2-2.7,0.8-3.8c0.6-1.1,1.4-1.7,2.3-2.5c0.8-0.8,1.6-1.7,2-2c0.4-0.3,0.4,0,0.2,0.6
	c-0.1,0.6-0.4,1.5-0.6,2.4c-0.2,0.9-0.2,1.8-0.4,2.8c-0.2,1-0.5,2-1,2.8c-0.6,0.8-1.4,1.5-2,1.5
	C350.4,381.4,349.9,380.7,349.8,379.6z M264,275c-5.5,4.9-10.4,4.9-15.9,0C253.2,278.2,258.4,278.2,264,275z M225.6,333.9
	c4.6,15.3,3.2,31.2-1.8,46.5c-4.1,12.7-18,10.5-29.7,9.4c-2.6-0.2-13.7-1.5-15.9-1.5c-4.9,1.1-6.8,4.4-11,7.4
	c-2.2,1.5-4.7,2.6-7.2,3.9c-1.5,2-2,3.9-0.9,7c4.5,13,24,23.9,36.7,28.8c3.9-2.3,8.2-1.6,8.2-1.6c7.1-2.7,17.2,1.3,28.3,1.7
	c1.8,0.3,2.8-1.5,5.5-2c3.5-0.7,4,1.2,8.2-0.4c2.6-0.9,5.3-2.4,7.1-3.3c-0.8-0.3-2.1-1-2.9-1.4c-17.3-8.4-34.6-27.8-55.4-31.6
	c21.6,1.5,39.4,20.6,57.3,28.8c1.5,0.7,3,1.3,4.5,1.8c24.8-12.1,37.3-29.1,60.5-30.7c-19.9,3.4-36.9,21.4-53.2,30.6
	c-5.7,3.2-13.2,6.9-19.2,9.1c-2.3,0.8-2.7-1-6.4-0.4c-1.6,0.2-3.5,2.4-5,2.3c-11.1-0.8-22.7-4.5-28.6-2c-3.8-0.6-12.2,1.1-7.5,4.4
	c0.6,0.4,1.3,0.6,1.7,0.7c0.4,0.1,0.4,0.1,0,0.2c-3.8,0.7-2.9,3.2-0.1,3.9c0.5,0.1,0.6,0.1,0.5,0.1c-0.1,0-0.5,0-0.8,0.1
	c-2,0.5-1.6,2.8,2.1,2.9c0.4,0,0.6,0,0.5,0c-2,1.3-0.6,2.7,1.2,2.9c0.7,0.1,1.7,0,2.2,0c0.5,0,0.6,0,0.5,0c-1.6,1.3,1.8,1.8,2.4,1.8
	c2.1,0.2,5.8,0.4,10.4,0.2c12.5-0.6,24.3-3.3,37-4.2c8.3-0.6,29.5-5.2,36.9-8c-3.8,2.8-13.2,5.9-23.1,7.7c4.3,1.2,9,2.3,13.3,3.1
	c3.9,0.7,9.1,1.3,13.7,1.5c4.5,0.2,8.3,0,10.4-0.2c0.5-0.1,4-0.5,2.4-1.8c-0.1,0,0,0,0.5,0c0.5,0,1.5,0.1,2.2,0
	c1.8-0.2,3.2-1.6,1.2-2.9c-0.1,0,0.1,0,0.5,0c3.7-0.1,4.5-2.5,1.3-3c-0.1,0,0.1,0,0.5-0.1c2.8-0.6,3.7-3.1-0.1-3.9
	c-0.4-0.1-0.4-0.1,0-0.2c2.8-0.8,4-3.6,1.4-4.8c-1.3,0.3-4,0.8-5.5,0.9c3.2-0.8,9.3-3,12.1-4.3c11.9-5.6,26.8-15.9,30.5-26.7
	c1.1-3.1,0.6-5-1-7c-1.3-0.6-4.5-2-7-3.6c-4.3-2.8-5.1-5.8-11.1-7.6c-2.9,0-13.1,1.2-15.5,1.4c-11.8,1-25.9,3.5-30.1-9.4
	c-5.1-15.7-6.2-30.4-2-46.3c0,4.1,0.1,8.2,0.4,11.7c0.8,11.6,1.7,18.4,12.2,24.7c8.8,5.3,22.6,10,29,13c4.8,2.2,8.7,3.2,11.8,5.2
	c3,2,3.9,4,7.8,6.2c1.8,1,3.6,1.8,5.3,3c1.4,0.9,1.6-0.8,1.2-1.7c-0.5-0.9-1.6-1.4-2.4-1.9c-0.4-0.3-4.4-2.8-3.6-3.4
	c0.1-0.1,0.5-0.1,1.2,0.2c0.7,0.3,1.9,0.8,3,1.1c1.2,0.3,2.4,0.3,4.3,0.3c1.4,0,5.5-0.4,8.5,0.4c1.2,0.3,1.8-2.4-3-3.1
	c-0.7-0.1-6.3-0.4-6.3-1.1c0-0.2,0.3-0.5,1.2-0.9c2-0.9,12.5-4.7,12.7-5.7c0.3-1.2-1.9-1.9-2.9-2c-2.8-0.1-5.9,2.8-9.9,3.2
	c-0.7,0.1-1,0.1-0.6-0.5c2.8-4.2,2-3.1,2-8c0-2.2,0.4-5.1,0.3-6.7c-0.1-1.6-0.6-1.9-1-2.2c-0.7-0.5-1.4-1.3-2.2-0.4
	c-1.4,1.4-2.2,2.3-3.1,3.1c-4.5,3.9-6.5,3.8-11.8,5.1c-2.3,0.5-3.3,2.4-4.6,2.8c-3.1,0.9-8.7-4.3-13.3-9.2
	c-5.5-5.9-7.5-8.7-14.4-13.5c-3.8-2.6-2-10.2-2-14.7c0.1-16.4,6.1-38.3-11.6-45.2c-13.8-5.4-27-3.9-28.8-20.6
	c0.3-0.3,0.6-0.5,0.9-0.8c1.5-1.5,3-3.3,4-5.2c1-1.9,1.6-3.9,1.9-5.2c0.3-1.2,0.3-1.6,0.7-1.8c0.4-0.2,1.1-0.1,1.7-0.5
	c0.5-0.4,0.9-1.4,1.2-2.5c0.3-1.1,0.5-2.3,0.8-3.6c0.3-1.2,0.8-2.5,1.1-3.7c0.3-1.2,0.3-2.4,0.1-3.1c-0.3-1-1.5-1.6-2.4-0.8
	c1.1-11.5-1.6-25.4-12.4-29.3c1.1-1.5,1.7-3.3,1.7-5.2c0-4.9-4-8.9-8.9-8.9c-4.9,0-8.9,4-8.9,8.9c0,2,0.6,3.8,1.7,5.2
	c-10.8,3.9-13.6,17.8-12.4,29.3c-0.9-0.8-2-0.3-2.4,0.8c-0.3,0.8-0.2,1.9,0.1,3.1c0.3,1.2,0.7,2.4,1.1,3.7c0.3,1.2,0.6,2.5,0.8,3.6
	c0.3,1.1,0.6,2,1.2,2.5c0.5,0.4,1.3,0.4,1.7,0.5c0.4,0.2,0.4,0.6,0.7,1.8c0.3,1.2,0.9,3.2,1.9,5.2c1,1.9,2.5,3.8,4,5.2
	c0.4,0.4,0.4,0.4,0.9,0.8c-0.7,5.3-2.3,9.1-5.3,11.6c-5.7,5-16,6.1-23.6,9c-17.7,6.9-11.7,28.8-11.6,45.2c0,4.5,1.8,12-2,14.7
	c-6.8,4.8-8.9,7.6-14.4,13.5c-4.6,4.9-10.1,10-13.3,9.2c-1.3-0.4-2.3-2.2-4.6-2.8c-5.3-1.3-7.3-1.1-11.8-5.1
	c-0.9-0.8-1.8-1.7-3.1-3.1c-0.8-0.8-1.4-0.1-2.2,0.4c-0.4,0.3-0.9,0.5-1,2.2c-0.1,1.6,0.3,4.6,0.3,6.7c0,4.8-0.8,3.8,2,8
	c0.4,0.6,0.1,0.5-0.6,0.5c-4-0.4-7.1-3.3-9.9-3.2c-0.9,0-3.1,0.7-2.9,2c0.2,1.1,10.7,4.8,12.7,5.7c0.9,0.4,1.2,0.6,1.2,0.9
	c0.1,0.7-5.6,1-6.3,1.1c-4.8,0.6-4.1,3.4-3,3.1c3-0.8,7-0.4,8.5-0.4c1.9,0,3.1,0,4.3-0.3c1.2-0.3,2.3-0.8,3-1.1
	c0.7-0.3,1.1-0.3,1.2-0.2c0.8,0.6-3.2,3.1-3.6,3.4c-0.8,0.4-2,1-2.4,1.9c-0.4,0.9-0.2,2.6,1.2,1.7c1.8-1.2,3.5-2,5.3-3
	c3.9-2.2,4.7-4.3,7.8-6.2c3.1-2,7-2.9,11.8-5.2c6.5-3,20.2-7.8,29-13c10.5-6.2,11.3-13,12.2-24.7
	C225.7,342.3,225.7,338.1,225.6,333.9z"/>
<path d="M269.6,197c26.2-38.6,22-74.1-13-106.9c-19.7,15.9-45.4,51.7-21.7,97.5c-1.3-1.1-2.7-2.2-3.9-3.4
	c-15.5-15.4-18.9-33.2-15.6-52.2c3.5-20.2,14.8-38.1,27.1-55.5c4-5.6,8.5-11,13.6-17.5c5.2,6.6,9.9,12.5,14.4,18.5
	c10.1,13.7,18.4,28.1,23.8,43.5c8.9,25.1,1.1,47.8-16.5,68.8c-1.9,2.2-3.9,4.4-5.9,6.6C271.8,196.5,271.3,196.5,269.6,197z"/>
<path d="M151.1,170.4c-3.2,33.2,8.5,57.3,35.7,73.2c-0.8-0.2-1.6-0.2-2.4-0.5c-22.9-8.2-36.9-24.9-42-49.8
	c-2.8-13.7-4.7-27.5-4.1-42.4c22,9.1,42.7,18.8,57.1,38.9c7.7,10.7,10.3,23,8.1,38.2C197.5,195.9,180.5,177.1,151.1,170.4z"/>
<path d="M358.5,174.5c-29.6,5.6-45.9,22.7-52.7,52.6c-3.1-12.4,1.3-27.4,11.6-39c11.8-13.3,27.2-21.2,43.1-28.2
	c3.2-1.4,6.4-2.5,11-4.3c-0.7,8.9-0.6,16.9-2,24.6c-1.8,10.1-3.9,20.3-7.5,29.9c-6.1,16.5-21.6,29-40.1,33.4
	C349.4,228.5,361.2,205.6,358.5,174.5z"/>
<path d="M338.2,130.3c-13.2,2.5-20.5,10.1-23.5,23.4c-1.4-5.5,0.6-12.2,5.2-17.4c5.3-5.9,12.1-9.5,19.2-12.6
	c1.4-0.6,2.9-1.1,4.9-1.9c-0.3,4-0.3,7.5-0.9,11c-0.8,4.5-1.8,9-3.3,13.3c-2.7,7.4-9.6,12.9-17.9,14.9
	C334.2,154.4,339.4,144.2,338.2,130.3z"/>
<path d="M344,343.9c-1.8-9.3-7.2-14.5-16.6-16.6c3.9-1,8.7,0.4,12.3,3.7c4.2,3.7,6.7,8.6,8.9,13.6c0.4,1,0.8,2,1.4,3.5
	c-2.8-0.2-5.3-0.2-7.8-0.6c-3.2-0.6-6.4-1.2-9.4-2.4c-5.2-1.9-9.2-6.8-10.5-12.7C327,341.1,334.2,344.8,344,343.9z"/>
<path d="M177.2,343.9c1.8-9.3,7.2-14.5,16.6-16.6c-3.9-1-8.7,0.4-12.3,3.7c-4.2,3.7-6.7,8.6-8.9,13.6c-0.4,1-0.8,2-1.4,3.5
	c2.8-0.2,5.3-0.2,7.8-0.6c3.2-0.6,6.4-1.2,9.4-2.4c5.2-1.9,9.2-6.8,10.5-12.7C194.3,341.1,187.1,344.8,177.2,343.9z"/>
<path d="M178.1,128.3c13.2,2.5,20.5,10.1,23.5,23.4c1.4-5.5-0.6-12.2-5.2-17.4c-5.3-5.9-12.1-9.5-19.2-12.6
	c-1.4-0.6-2.9-1.1-4.9-1.9c0.3,4,0.3,7.5,0.9,11c0.8,4.5,1.8,9,3.3,13.3c2.7,7.4,9.6,12.9,17.9,14.9
	C182.1,152.4,176.9,142.2,178.1,128.3z"/>
<path d="M413.3,269.8c-32.5-21.9-63.5-20.9-97.8,0.8c8.8-14.5,26.9-24.5,47.2-25.9c23.3-1.5,44.9,5.1,66.1,13.2
	c4.2,1.6,8.3,3.6,14.1,6.1c-8.9,7.7-16.4,15.3-24.9,21.2c-11.1,7.8-22.6,15.4-34.9,21.1c-21.1,9.9-47.1,7.3-68.2-5.6
	C354.3,312.1,386.6,301.4,413.3,269.8z"/>
<path d="M99.7,275.8c32.5-21.9,63.5-20.9,97.8,0.8c-8.8-14.5-26.9-24.5-47.2-25.9c-23.3-1.5-44.9,5.1-66.1,13.2
	c-4.2,1.6-8.3,3.6-14.1,6.1c8.9,7.7,16.4,15.3,24.9,21.2c11.1,7.8,22.6,15.4,34.9,21.1c21.1,9.9,47.1,7.3,68.2-5.6
	C158.8,318.1,126.4,307.4,99.7,275.8z"/>
</svg>
